<?xml version="1.0" encoding="UTF-8" standalone="no"?>
<!DOCTYPE svg PUBLIC "-//W3C//DTD SVG 1.1//EN" "http://www.w3.org/Graphics/SVG/1.1/DTD/svg11.dtd">
<svg width="100%" height="100%" viewBox="0 0 256 256" version="1.1" xmlns="http://www.w3.org/2000/svg" xmlns:xlink="http://www.w3.org/1999/xlink" xml:space="preserve" xmlns:serif="http://www.serif.com/" style="fill-rule:evenodd;clip-rule:evenodd;stroke-linejoin:round;stroke-miterlimit:2;">
    <g transform="matrix(1,0,0,1,4.41176,0.839303)">
        <path d="M119.327,201.197L178.807,164.562C182.082,162.545 183.103,158.248 181.086,154.972L126.097,65.691L210.076,65.691C211.694,65.691 213.246,66.334 214.39,67.478C215.534,68.622 216.176,70.174 216.176,71.791L216.176,200.209C216.176,201.826 215.534,203.378 214.39,204.522C213.246,205.666 211.694,206.309 210.076,206.309L125.346,206.309C123.728,206.309 122.177,205.666 121.033,204.522C120.124,203.614 119.532,202.448 119.327,201.197ZM109.481,51.327L172.086,152.972C174.103,156.248 173.082,160.545 169.807,162.562L104.23,202.952C100.954,204.969 96.657,203.948 94.64,200.673L32.035,99.028C30.018,95.752 31.039,91.455 34.315,89.438L99.892,49.048C103.167,47.031 107.464,48.052 109.481,51.327ZM104.906,58.271C104.096,56.956 102.371,56.546 101.056,57.356L41.089,94.291C39.773,95.101 39.363,96.826 40.173,98.141L98.879,193.456C99.689,194.771 101.414,195.181 102.729,194.371L162.697,157.436C164.012,156.626 164.422,154.901 163.612,153.586L104.906,58.271Z"/>
        <path d="M119.327,201.197L178.807,164.562C182.082,162.545 183.103,158.248 181.086,154.972L126.097,65.691L210.076,65.691C211.694,65.691 213.246,66.334 214.39,67.478C215.534,68.622 216.176,70.174 216.176,71.791L216.176,200.209C216.176,201.826 215.534,203.378 214.39,204.522C213.246,205.666 211.694,206.309 210.076,206.309L125.346,206.309C123.728,206.309 122.177,205.666 121.033,204.522C120.124,203.614 119.532,202.448 119.327,201.197ZM125.298,202.266C125.314,202.266 125.33,202.267 125.346,202.267L210.076,202.267C210.622,202.267 211.146,202.05 211.532,201.664C211.918,201.278 212.134,200.754 212.134,200.209L212.134,71.791C212.134,71.246 211.918,70.722 211.532,70.336C211.146,69.95 210.622,69.733 210.076,69.733L133.333,69.733L184.528,152.853C187.715,158.028 186.101,164.816 180.926,168.004L125.298,202.266ZM109.481,51.327L172.086,152.972C174.103,156.248 173.082,160.545 169.807,162.562L104.23,202.952C100.954,204.969 96.657,203.948 94.64,200.673L32.035,99.028C30.018,95.752 31.039,91.455 34.315,89.438L99.892,49.048C103.167,47.031 107.464,48.052 109.481,51.327ZM35.748,97.349C35.575,95.583 36.096,93.798 37.214,92.399L36.434,92.879C35.058,93.727 34.629,95.532 35.477,96.908L35.748,97.349ZM101.11,53.045C102.975,52.652 104.927,53.06 106.475,54.153L106.04,53.447C105.192,52.071 103.387,51.642 102.011,52.49L101.11,53.045ZM167.995,154.038C168.387,156.666 167.22,159.397 164.817,160.878L104.849,197.813C102.549,199.229 99.735,199.119 97.596,197.764L98.081,198.553C98.929,199.929 100.734,200.358 102.11,199.51L167.687,159.121C169.063,158.273 169.492,156.468 168.644,155.092L167.995,154.038ZM104.906,58.271C104.096,56.956 102.371,56.546 101.056,57.356L41.089,94.291C39.773,95.101 39.363,96.826 40.173,98.141L98.879,193.456C99.689,194.771 101.414,195.181 102.729,194.371L162.697,157.436C164.012,156.626 164.422,154.901 163.612,153.586L104.906,58.271Z"/>
    </g>
</svg>
