<?xml version="1.0" encoding="UTF-8" standalone="no"?>
<!DOCTYPE svg PUBLIC "-//W3C//DTD SVG 1.1//EN" "http://www.w3.org/Graphics/SVG/1.1/DTD/svg11.dtd">
<svg width="100%" height="100%" viewBox="0 0 256 256" version="1.1" xmlns="http://www.w3.org/2000/svg" xmlns:xlink="http://www.w3.org/1999/xlink" xml:space="preserve" xmlns:serif="http://www.serif.com/" style="fill-rule:evenodd;clip-rule:evenodd;stroke-linejoin:round;stroke-miterlimit:2;">
    <path d="M65.205,120.181C-3.275,72.432 4.007,36.345 4.007,36.345C4.007,36.345 51.701,33.949 87.4,103.914C99.115,98.203 112.861,94.913 127.558,94.913C141.961,94.913 155.452,98.073 167.012,103.575C202.683,34.131 250.144,36.516 250.144,36.516C250.144,36.516 257.378,72.363 189.628,119.876C199.317,130.257 205.058,143.145 205.058,157.101C205.058,191.423 170.331,219.288 127.558,219.288C84.785,219.288 50.058,191.423 50.058,157.101C50.058,143.282 55.687,130.51 65.205,120.181ZM189.665,153.003C181.206,151.042 172.287,158.297 169.762,169.194C167.236,180.09 172.053,190.529 180.513,192.489C188.972,194.45 197.89,187.195 200.416,176.299C202.941,165.402 198.124,154.964 189.665,153.003ZM65.513,153.059C57.053,155.02 52.236,165.458 54.762,176.355C57.287,187.251 66.206,194.506 74.665,192.545C83.124,190.585 87.941,180.146 85.416,169.25C82.89,158.353 73.972,151.098 65.513,153.059Z"/>
    <path d="M65.205,120.181C-3.275,72.432 4.007,36.345 4.007,36.345C4.007,36.345 51.701,33.949 87.4,103.914C99.115,98.203 112.861,94.913 127.558,94.913C141.961,94.913 155.452,98.073 167.012,103.575C202.683,34.131 250.144,36.516 250.144,36.516C250.144,36.516 257.378,72.363 189.628,119.876C199.317,130.257 205.058,143.145 205.058,157.101C205.058,191.423 170.331,219.288 127.558,219.288C84.785,219.288 50.058,191.423 50.058,157.101C50.058,143.282 55.687,130.51 65.205,120.181ZM189.665,153.003C181.206,151.042 172.287,158.297 169.762,169.194C167.236,180.09 172.053,190.529 180.513,192.489C188.972,194.45 197.89,187.195 200.416,176.299C202.941,165.402 198.124,154.964 189.665,153.003ZM65.513,153.059C57.053,155.02 52.236,165.458 54.762,176.355C57.287,187.251 66.206,194.506 74.665,192.545C83.124,190.585 87.941,180.146 85.416,169.25C82.89,158.353 73.972,151.098 65.513,153.059ZM62.608,143.335C62.812,143.281 63.017,143.231 63.224,143.183C76.386,140.132 91.362,150.006 95.292,166.961C98.248,179.717 93.827,191.624 85.85,198.038C97.396,205.036 111.939,209.15 127.558,209.15C143.211,209.15 157.783,205.019 169.341,197.993C161.356,191.581 156.928,179.668 159.886,166.905C163.816,149.95 178.792,140.076 191.954,143.127C192.13,143.168 192.305,143.211 192.479,143.256C190.312,137.241 186.781,131.684 182.216,126.793C180.214,124.648 179.24,121.74 179.545,118.822C179.85,115.904 181.405,113.261 183.807,111.576C223.875,83.476 235.62,60.642 238.976,48.365C224.538,52.325 198.041,65.356 176.03,108.207C173.526,113.081 167.603,115.084 162.655,112.729C152.374,107.835 140.369,105.051 127.558,105.051C114.49,105.051 102.26,107.948 91.843,113.026C86.875,115.448 80.882,113.445 78.37,108.521C56.308,65.283 29.666,52.169 15.175,48.194C18.547,60.538 30.401,83.555 71.003,111.866C73.405,113.54 74.965,116.171 75.283,119.082C75.6,121.993 74.644,124.898 72.66,127.051C68.191,131.901 64.735,137.395 62.608,143.335Z"/>
</svg>
