<?xml version="1.0" encoding="UTF-8" standalone="no"?>
<!DOCTYPE svg PUBLIC "-//W3C//DTD SVG 1.1//EN" "http://www.w3.org/Graphics/SVG/1.1/DTD/svg11.dtd">
<svg width="100%" height="100%" viewBox="0 0 256 256" version="1.1" xmlns="http://www.w3.org/2000/svg" xmlns:xlink="http://www.w3.org/1999/xlink" xml:space="preserve" xmlns:serif="http://www.serif.com/" style="fill-rule:evenodd;clip-rule:evenodd;stroke-linejoin:round;stroke-miterlimit:2;">
    <g transform="matrix(1,0,0,1,-6.17297,-2.88951)">
        <path d="M36.116,75.75L36.116,27.158C36.116,19.926 41.978,14.064 49.209,14.064L197.752,14.064C190.521,14.064 184.659,19.926 184.659,27.158L184.659,42.218L148.265,42.289C148.381,42.29 137.76,42.106 129.744,47.682C122.538,52.695 107.941,65.098 99.894,68.513C93.011,71.434 86.53,70.873 86.53,70.873C86.449,70.865 86.367,70.86 86.286,70.856C86.286,70.856 54.541,69.571 42.286,72.916C39.773,73.601 37.774,74.624 36.116,75.75ZM60.871,18.805C50.197,18.805 41.53,27.471 41.53,38.146C41.53,48.82 50.197,57.487 60.871,57.487C71.546,57.487 80.212,48.82 80.212,38.146C80.212,27.471 71.546,18.805 60.871,18.805ZM60.871,26.305C67.406,26.305 72.712,31.611 72.712,38.146C72.712,44.681 67.406,49.987 60.871,49.987C54.336,49.987 49.03,44.681 49.03,38.146C49.03,31.611 54.336,26.305 60.871,26.305ZM111.052,18.393C106.913,18.393 103.552,21.754 103.552,25.893C103.552,30.032 106.913,33.393 111.052,33.393C115.191,33.393 118.552,30.032 118.552,25.893C118.552,21.754 115.191,18.393 111.052,18.393ZM93.353,18.393C89.214,18.393 85.853,21.754 85.853,25.893C85.853,30.032 89.214,33.393 93.353,33.393C97.493,33.393 100.853,30.032 100.853,25.893C100.853,21.754 97.493,18.393 93.353,18.393ZM128.39,18.393C124.25,18.393 120.89,21.754 120.89,25.893C120.89,30.032 124.25,33.393 128.39,33.393C132.529,33.393 135.89,30.032 135.89,25.893C135.89,21.754 132.529,18.393 128.39,18.393ZM184.659,52.218L184.659,234.621C184.659,241.853 190.521,247.715 197.752,247.715L49.209,247.715C41.978,247.715 36.116,241.853 36.116,234.621L36.116,88.655C36.997,88.107 37.902,87.347 38.875,86.441C40.237,85.171 41.901,83.387 44.919,82.563C55.917,79.561 83.797,80.754 85.742,80.842C86.81,80.925 95.076,81.421 103.8,77.718C112.3,74.112 127.842,61.186 135.455,55.891C140.914,52.093 148.169,52.288 148.169,52.288C148.207,52.289 148.246,52.289 148.285,52.289L184.659,52.218ZM165.053,221.908C165.053,220.582 164.526,219.31 163.588,218.373C162.65,217.435 161.379,216.908 160.053,216.908L60.053,216.908C58.727,216.908 57.455,217.435 56.517,218.373C55.579,219.31 55.053,220.582 55.053,221.908C55.053,223.234 55.579,224.506 56.517,225.444C57.455,226.381 58.727,226.908 60.053,226.908L160.053,226.908C161.379,226.908 162.65,226.381 163.588,225.444C164.526,224.506 165.053,223.234 165.053,221.908ZM232.23,27.158L232.23,234.621C232.23,241.853 226.368,247.715 219.137,247.715L208.752,247.715C201.521,247.715 195.659,241.853 195.659,234.621L195.659,27.158C195.659,19.926 201.521,14.064 208.752,14.064L219.137,14.064C226.368,14.064 232.23,19.926 232.23,27.158Z" style="fill-opacity:0.7;"/>
    </g>
</svg>
