<?xml version="1.0" encoding="UTF-8" standalone="no"?>
<!DOCTYPE svg PUBLIC "-//W3C//DTD SVG 1.1//EN" "http://www.w3.org/Graphics/SVG/1.1/DTD/svg11.dtd">
<svg width="100%" height="100%" viewBox="0 0 256 256" version="1.1" xmlns="http://www.w3.org/2000/svg" xmlns:xlink="http://www.w3.org/1999/xlink" xml:space="preserve" xmlns:serif="http://www.serif.com/" style="fill-rule:evenodd;clip-rule:evenodd;stroke-linejoin:round;stroke-miterlimit:2;">
    <path d="M30.464,119.711C34.677,69.561 76.769,30.117 128,30.117C179.231,30.117 221.323,69.561 225.536,119.711L164.647,119.711C160.868,102.96 145.885,90.434 128,90.434C110.115,90.434 95.132,102.96 91.353,119.711L30.464,119.711ZM225.536,136.289C221.323,186.439 179.231,225.883 128,225.883C76.769,225.883 34.677,186.439 30.464,136.289L91.353,136.289C95.132,153.04 110.115,165.566 128,165.566C145.885,165.566 160.868,153.04 164.647,136.289L225.536,136.289ZM213.976,146.289C213.976,146.289 171.915,146.289 171.915,146.289C164.741,163.474 147.772,175.566 128,175.566C108.228,175.566 91.259,163.474 84.085,146.289C84.085,146.289 42.024,146.289 42.024,146.289C50.447,186.029 85.766,215.883 128,215.883C170.234,215.883 205.553,186.029 213.976,146.289ZM128,103C141.798,103 153,114.202 153,128C153,141.798 141.798,153 128,153C114.202,153 103,141.798 103,128C103,114.202 114.202,103 128,103Z"/>
</svg>
