<?xml version="1.0" encoding="UTF-8" standalone="no"?>
<!DOCTYPE svg PUBLIC "-//W3C//DTD SVG 1.1//EN" "http://www.w3.org/Graphics/SVG/1.1/DTD/svg11.dtd">
<svg width="100%" height="100%" viewBox="0 0 256 256" version="1.1" xmlns="http://www.w3.org/2000/svg" xmlns:xlink="http://www.w3.org/1999/xlink" xml:space="preserve" xmlns:serif="http://www.serif.com/" style="fill-rule:evenodd;clip-rule:evenodd;stroke-linecap:round;stroke-linejoin:round;stroke-miterlimit:1;">
    <g transform="matrix(1,0,0,1,-2.37234,0.250156)">
        <path d="M191.009,27.571C186.816,28.18 184.207,29.685 182.707,30.915C181.628,31.834 181.005,33.18 181.005,34.598C180.996,53.361 180.996,208.724 180.996,221.903C180.996,222.512 181.226,223.098 181.64,223.545C182.835,224.76 185.71,227.144 190.708,228.118C188.277,229.61 185.416,230.47 182.354,230.47L62.674,230.47C53.838,230.47 46.674,223.306 46.674,214.47L46.674,41.03C46.674,32.193 53.838,25.03 62.674,25.03L182.354,25.03C185.543,25.03 188.514,25.963 191.009,27.571ZM178.093,226.106C177.15,224.913 176.632,223.433 176.632,221.903C176.632,208.724 176.632,53.359 176.642,34.598C176.642,32.721 177.215,30.91 178.256,29.393L62.674,29.393C56.248,29.394 51.038,34.603 51.038,41.03L51.038,214.47C51.038,220.896 56.248,226.106 62.674,226.106L178.093,226.106Z"/>
        <g transform="matrix(0.985344,0,0,0.978169,6.06605,3.04398)">
            <path d="M211.098,34.184C211.098,53.275 211.098,211.378 211.075,222.208C211.075,223.003 210.86,223.783 210.452,224.464C210.438,224.487 210.424,224.51 210.409,224.532C209.294,226.227 205.685,230.395 195.371,230.479C186.438,230.551 181.647,226.665 179.911,224.932C179.898,224.918 179.885,224.905 179.872,224.892C179.101,224.076 178.672,222.992 178.672,221.866C178.672,208.444 178.672,53.35 178.683,34.231C178.683,32.185 179.59,30.246 181.155,28.942C181.165,28.935 181.174,28.927 181.183,28.919C183.401,27.144 187.718,24.806 195.352,24.922C202.499,25.031 206.511,27.209 208.614,28.88C208.628,28.891 208.643,28.903 208.657,28.915C210.205,30.221 211.099,32.15 211.098,34.184ZM207.289,34.184C207.289,33.294 206.902,32.449 206.213,31.859C204.469,30.49 201.134,28.848 195.294,28.759C189.007,28.663 185.407,30.446 183.563,31.916C182.885,32.49 182.492,33.338 182.492,34.231C182.481,53.352 182.481,208.444 182.481,221.867C182.481,222.001 182.529,222.13 182.628,222.242C184.084,223.68 188.059,226.701 195.34,226.642C203.304,226.577 206.297,223.798 207.208,222.45C207.246,222.375 207.266,222.293 207.266,222.208L207.266,222.204C207.289,211.37 207.289,53.274 207.289,34.184Z"/>
        </g>
        <g transform="matrix(1.04733,0,0,0.973214,-5.42314,6.04932)">
            <path d="M149.371,207.882L149.371,207.883C149.371,209.832 147.903,211.412 146.092,211.412L84.063,211.412C82.252,211.412 80.784,209.832 80.784,207.883L80.784,207.882C80.784,205.933 82.252,204.353 84.063,204.353L146.092,204.353C147.903,204.353 149.371,205.933 149.371,207.882ZM147.579,207.882C147.579,206.998 146.913,206.281 146.092,206.281L84.063,206.281C83.242,206.281 82.576,206.998 82.576,207.882L82.576,207.883C82.576,208.767 83.242,209.484 84.063,209.484L146.092,209.484C146.913,209.484 147.579,208.767 147.579,207.883L147.579,207.882Z"/>
        </g>
        <path d="M48.735,71.999C48.735,71.999 50.327,68.541 54.327,68.154C61.141,67.496 80.541,69.086 89.629,68.154C96.268,67.473 101.416,67.15 108.853,62.562C116.715,57.711 131.021,46.626 139.786,44.561C149.707,42.224 178.03,43.163 178.03,43.163" style="fill:none;stroke:black;stroke-width:4.04px;"/>
        <path d="M91.377,33.027C93.595,33.027 95.396,34.828 95.396,37.046C95.396,39.265 93.595,41.066 91.377,41.066C89.158,41.066 87.357,39.265 87.357,37.046C87.357,34.828 89.158,33.027 91.377,33.027ZM102.911,33.027C105.129,33.027 106.93,34.828 106.93,37.046C106.93,39.265 105.129,41.066 102.911,41.066C100.692,41.066 98.891,39.265 98.891,37.046C98.891,34.828 100.692,33.027 102.911,33.027ZM114.27,33.027C116.489,33.027 118.29,34.828 118.29,37.046C118.29,39.265 116.489,41.066 114.27,41.066C112.052,41.066 110.251,39.265 110.251,37.046C110.251,34.828 112.052,33.027 114.27,33.027Z" style="fill:none;stroke:black;stroke-width:1.88px;"/>
        <path d="M70.125,32.019C78.726,32.019 85.709,39.001 85.709,47.602C85.709,56.203 78.726,63.186 70.125,63.186C61.525,63.186 54.542,56.203 54.542,47.602C54.542,39.001 61.525,32.019 70.125,32.019ZM70.125,33.895C62.56,33.895 56.419,40.037 56.419,47.602C56.419,55.167 62.56,61.309 70.125,61.309C77.69,61.309 83.832,55.167 83.832,47.602C83.832,40.037 77.69,33.895 70.125,33.895ZM70.125,37.227C75.852,37.227 80.501,41.876 80.501,47.602C80.501,53.328 75.852,57.978 70.125,57.978C64.399,57.978 59.75,53.328 59.75,47.602C59.75,41.876 64.399,37.227 70.125,37.227ZM70.125,39.103C65.435,39.103 61.627,42.911 61.627,47.602C61.627,52.293 65.435,56.101 70.125,56.101C74.816,56.101 78.624,52.293 78.624,47.602C78.624,42.911 74.816,39.103 70.125,39.103Z"/>
        <g transform="matrix(0.683352,0.687702,-0.687702,0.683352,73.7713,-13.7687)">
            <path d="M93.445,115.179C93.445,114.136 92.599,113.289 91.555,113.289L84.135,113.289C83.563,113.289 83.022,113.548 82.663,113.994C82.304,114.439 82.166,115.023 82.288,115.582C83.368,120.616 86.108,123.9 91.277,124.638C91.816,124.72 92.363,124.562 92.775,124.207C93.188,123.851 93.425,123.334 93.425,122.789C93.445,120.647 93.445,117.276 93.445,115.179Z" style="fill:none;stroke:black;stroke-width:1.94px;"/>
        </g>
    </g>
</svg>
