<?xml version="1.0" encoding="UTF-8" standalone="no"?>
<!DOCTYPE svg PUBLIC "-//W3C//DTD SVG 1.1//EN" "http://www.w3.org/Graphics/SVG/1.1/DTD/svg11.dtd">
<svg width="100%" height="100%" viewBox="0 0 256 256" version="1.1" xmlns="http://www.w3.org/2000/svg" xmlns:xlink="http://www.w3.org/1999/xlink" xml:space="preserve" xmlns:serif="http://www.serif.com/" style="fill-rule:evenodd;clip-rule:evenodd;stroke-linejoin:round;stroke-miterlimit:2;">
    <g transform="matrix(1,0,0,1,-0.375797,-0.865441)">
        <path d="M134.042,225.265C133.967,225.27 133.892,225.273 133.816,225.273L11.373,225.273C9.704,225.273 8.352,223.92 8.352,222.252L8.352,35.452C8.352,33.784 9.704,32.431 11.373,32.431L133.816,32.431C135.484,32.431 136.837,33.784 136.837,35.452L136.837,52.04L168.071,51.707C168.678,51.7 169.255,51.97 169.64,52.44L186.201,72.662L246.027,73.018C246.416,73.02 246.779,73.134 247.086,73.329C247.852,73.609 248.4,74.345 248.4,75.208L248.389,223.3C248.389,224.405 247.494,225.3 246.389,225.3L134.418,225.3C134.289,225.3 134.163,225.288 134.042,225.265ZM118.05,55.94L90.083,55.714L73.533,75.923C73.156,76.384 72.593,76.653 71.997,76.656L12.352,77.011L12.352,221.273L118.271,221.273L118.05,55.94ZM17,80.631L74.714,80.631L91.798,60.366C91.988,60.141 92.267,60.011 92.562,60.01L112.956,60C113.221,60 113.476,60.105 113.663,60.293C113.851,60.48 113.956,60.734 113.956,61L114,215.73C114,215.996 113.895,216.25 113.707,216.438C113.52,216.625 113.265,216.731 113,216.731L17.009,216.731C16.457,216.731 16.009,216.283 16.009,215.731L16,81.631C16,81.365 16.105,81.111 16.293,80.924C16.48,80.736 16.735,80.631 17,80.631ZM18,82.631L18.009,214.731C18.009,214.731 112,214.731 112,214.731L111.957,62L93.027,62.01L75.943,82.275C75.753,82.501 75.473,82.631 75.178,82.631L18,82.631ZM106.976,89.598L106.976,156.995C106.976,158.612 105.665,159.923 104.047,159.923L32.27,159.923C31.169,159.923 30.113,159.486 29.335,158.707L22.838,152.21C22.06,151.432 21.622,150.376 21.622,149.276L21.622,89.598C21.622,87.981 22.933,86.67 24.55,86.67L104.047,86.67C105.665,86.67 106.976,87.981 106.976,89.598ZM31.713,156.923L103.976,156.923L103.976,89.67L24.622,89.67L24.622,149.76L31.713,156.923ZM97.447,102.257L97.447,143.589C97.447,145.107 96.217,146.338 94.699,146.338L34.411,146.338C32.893,146.338 31.663,145.107 31.663,143.589L31.663,102.257C31.663,100.739 32.893,99.508 34.411,99.508L94.699,99.508C96.217,99.508 97.447,100.739 97.447,102.257ZM34.663,143.338L94.447,143.338L94.447,102.508L34.663,102.508L34.663,143.338ZM70.734,91.461C72.715,91.461 74.324,93.069 74.324,95.05C74.324,97.031 72.715,98.639 70.734,98.639C68.754,98.639 67.145,97.031 67.145,95.05C67.145,93.069 68.754,91.461 70.734,91.461ZM70.734,93.461C69.857,93.461 69.145,94.173 69.145,95.05C69.145,95.927 69.857,96.639 70.734,96.639C71.612,96.639 72.324,95.927 72.324,95.05C72.324,94.173 71.612,93.461 70.734,93.461ZM58.734,91.461C60.715,91.461 62.324,93.069 62.324,95.05C62.324,97.031 60.715,98.639 58.734,98.639C56.754,98.639 55.145,97.031 55.145,95.05C55.145,93.069 56.754,91.461 58.734,91.461ZM58.734,93.461C57.857,93.461 57.145,94.173 57.145,95.05C57.145,95.927 57.857,96.639 58.734,96.639C59.612,96.639 60.324,95.927 60.324,95.05C60.324,94.173 59.612,93.461 58.734,93.461ZM35.734,148.461C37.715,148.461 39.324,150.069 39.324,152.05C39.324,154.031 37.715,155.639 35.734,155.639C33.754,155.639 32.145,154.031 32.145,152.05C32.145,150.069 33.754,148.461 35.734,148.461ZM35.734,150.461C34.857,150.461 34.145,151.173 34.145,152.05C34.145,152.927 34.857,153.639 35.734,153.639C36.612,153.639 37.324,152.927 37.324,152.05C37.324,151.173 36.612,150.461 35.734,150.461ZM26.695,178.088C30.96,178.088 34.422,181.551 34.422,185.816C34.422,190.081 30.96,193.543 26.695,193.543C22.43,193.543 18.968,190.081 18.968,185.816C18.968,181.551 22.43,178.088 26.695,178.088ZM26.695,180.088C23.534,180.088 20.968,182.655 20.968,185.816C20.968,188.977 23.534,191.543 26.695,191.543C29.856,191.543 32.422,188.977 32.422,185.816C32.422,182.655 29.856,180.088 26.695,180.088ZM72.83,174.176L72.83,175.801C72.83,176.801 72.018,177.614 71.018,177.614L58.917,177.614C57.917,177.614 57.105,176.801 57.105,175.801L57.105,174.176C57.105,173.175 57.917,172.363 58.917,172.363L71.018,172.363C72.018,172.363 72.83,173.175 72.83,174.176ZM59.105,174.363L59.105,175.614L70.83,175.614L70.831,174.363L59.105,174.363ZM71.602,185.69L71.602,204.472C71.602,205.025 71.154,205.472 70.602,205.472L39.178,205.472C38.625,205.472 38.178,205.025 38.178,204.472L38.178,185.69C38.178,185.138 38.625,184.69 39.178,184.69L70.602,184.69C71.154,184.69 71.602,185.138 71.602,185.69ZM69.602,186.69L40.178,186.69C40.178,186.69 40.178,203.472 40.178,203.472L69.602,203.472L69.602,186.69ZM87.12,196.804L76.742,196.804C76.19,196.804 75.742,196.356 75.742,195.804L75.742,185.51C75.742,184.957 76.19,184.51 76.742,184.51L87.12,184.51L87.12,174.854C87.12,174.302 87.568,173.854 88.12,173.854L97.692,173.854C98.244,173.854 98.692,174.302 98.692,174.854L98.692,184.51L108.889,184.51C109.441,184.51 109.889,184.957 109.889,185.51L109.889,195.804C109.889,196.356 109.441,196.804 108.889,196.804L98.692,196.804L98.692,206.64C98.692,207.192 98.244,207.64 97.692,207.64L88.12,207.64C87.568,207.64 87.12,207.192 87.12,206.64L87.12,196.804ZM52.83,174.176L52.83,175.801C52.83,176.801 52.018,177.614 51.018,177.614L38.917,177.614C37.917,177.614 37.105,176.801 37.105,175.801L37.105,174.176C37.105,173.175 37.917,172.363 38.917,172.363L51.018,172.363C52.018,172.363 52.83,173.175 52.83,174.176ZM39.105,174.363L39.105,175.614L50.83,175.614L50.831,174.363L39.105,174.363ZM136.837,56.04L136.837,221.3L244.39,221.3L244.4,77.008L185.238,76.656C184.642,76.653 184.08,76.384 183.702,75.923L167.154,55.717L136.837,56.04ZM240,81.631L239.991,215.731C239.991,216.283 239.543,216.731 238.991,216.731L142,216.731C141.735,216.731 141.48,216.625 141.293,216.438C141.105,216.25 141,215.996 141,215.73L141.044,61C141.044,60.734 141.149,60.48 141.337,60.293C141.524,60.105 141.779,60 142.044,60L163.438,60.01C163.733,60.011 164.012,60.141 164.202,60.366C164.202,60.366 181.286,80.631 181.286,80.631L239,80.631C239.265,80.631 239.52,80.736 239.707,80.924C239.895,81.111 240,81.365 240,81.631ZM238,82.631L180.822,82.631C180.527,82.631 180.247,82.501 180.057,82.275C180.057,82.275 162.973,62.01 162.973,62.01C162.973,62.01 143.043,62 143.043,62C143.043,62 143,214.731 143,214.731L237.991,214.731L238,82.631ZM186.824,194.366L186.824,206.278C186.824,206.831 186.376,207.278 185.824,207.278L152.914,207.278C152.361,207.278 151.914,206.831 151.914,206.278L151.914,194.366C151.914,193.814 152.361,193.366 152.914,193.366L185.824,193.366C186.376,193.366 186.824,193.814 186.824,194.366ZM184.824,195.366L153.914,195.366L153.914,205.278L184.824,205.278L184.824,195.366ZM229.626,91.959L229.626,116.882C229.626,117.434 229.178,117.882 228.626,117.882L152.594,117.882C152.042,117.882 151.594,117.434 151.594,116.882L151.594,91.959C151.594,91.407 152.042,90.959 152.594,90.959L228.626,90.959C229.178,90.959 229.626,91.407 229.626,91.959ZM227.626,92.959L153.594,92.959L153.594,115.882L227.626,115.882L227.626,92.959ZM182.573,175.278L152.914,175.278C152.361,175.278 151.914,174.831 151.914,174.278L151.914,162.366C151.914,161.814 152.361,161.366 152.914,161.366L182.573,161.366C183.126,161.366 183.573,161.814 183.573,162.366L183.573,174.278C183.573,174.831 183.126,175.278 182.573,175.278ZM166.584,163.366L153.914,163.366C153.914,163.366 153.914,173.278 153.914,173.278L166.584,173.278L166.584,163.366ZM168.584,173.278L181.573,173.278L181.573,163.366L168.584,163.366L168.584,173.278ZM229.824,194.366L229.824,206.278C229.824,206.831 229.376,207.278 228.824,207.278L195.914,207.278C195.361,207.278 194.914,206.831 194.914,206.278L194.914,194.366C194.914,193.814 195.361,193.366 195.914,193.366L228.824,193.366C229.376,193.366 229.824,193.814 229.824,194.366ZM227.824,195.366L196.914,195.366L196.914,205.278L227.824,205.278L227.824,195.366ZM151.594,148.882L151.594,123.959C151.594,123.407 152.042,122.959 152.594,122.959L228.626,122.959C229.178,122.959 229.626,123.407 229.626,123.959L229.626,148.882C229.626,149.434 229.178,149.882 228.626,149.882L152.594,149.882C152.042,149.882 151.594,149.434 151.594,148.882ZM166.403,137L153.594,137L153.594,147.882L166.403,147.882L166.403,137ZM166.403,124.959L153.594,124.959L153.594,135L166.403,135L166.403,124.959ZM197.403,124.959L183.403,124.959L183.403,135L197.403,135L197.403,124.959ZM181.403,124.959L168.403,124.959L168.403,135L181.403,135L181.403,124.959ZM213.403,124.959L199.403,124.959L199.403,135L213.403,135L213.403,124.959ZM183.403,147.882L197.403,147.882L197.403,137L183.403,137L183.403,147.882ZM215.403,135L227.626,135L227.626,124.959L215.403,124.959L215.403,135ZM168.403,147.882L181.403,147.882L181.403,137L168.403,137L168.403,147.882ZM215.403,147.882L227.626,147.882L227.626,137L215.403,137L215.403,147.882ZM199.403,147.882L213.403,147.882L213.403,137L199.403,137L199.403,147.882ZM221.345,169.533C224.788,169.533 227.583,172.328 227.583,175.771C227.583,179.213 224.788,182.008 221.345,182.008C217.903,182.008 215.108,179.213 215.108,175.771C215.108,172.328 217.903,169.533 221.345,169.533ZM221.345,171.533C219.007,171.533 217.108,173.432 217.108,175.771C217.108,178.109 219.007,180.008 221.345,180.008C223.684,180.008 225.583,178.109 225.583,175.771C225.583,173.432 223.684,171.533 221.345,171.533ZM212.83,154.176L212.83,155.801C212.83,156.801 212.018,157.614 211.018,157.614L198.917,157.614C197.917,157.614 197.105,156.801 197.105,155.801L197.105,154.176C197.105,153.175 197.917,152.363 198.917,152.363L211.018,152.363C212.018,152.363 212.83,153.175 212.83,154.176ZM199.105,154.363L199.105,155.614L210.83,155.614L210.83,154.363L199.105,154.363ZM229.83,154.176L229.83,155.801C229.83,156.801 229.018,157.614 228.018,157.614L215.917,157.614C214.917,157.614 214.105,156.801 214.105,155.801L214.105,154.176C214.105,153.175 214.917,152.363 215.917,152.363L228.018,152.363C229.018,152.363 229.83,153.175 229.83,154.176ZM216.105,154.363L216.105,155.614L227.83,155.614L227.83,154.363L216.105,154.363ZM132.837,52.058L132.837,36.431L12.352,36.431L12.352,73.011L71.034,72.662L87.595,52.44C87.979,51.971 88.553,51.702 89.159,51.707L132.837,52.058ZM54.23,37.643C56.277,37.643 57.939,39.305 57.939,41.352C57.939,43.399 56.277,45.061 54.23,45.061C52.183,45.061 50.521,43.399 50.521,41.352C50.521,39.305 52.183,37.643 54.23,37.643ZM54.23,39.643C53.287,39.643 52.521,40.409 52.521,41.352C52.521,42.295 53.287,43.061 54.23,43.061C55.173,43.061 55.939,42.295 55.939,41.352C55.939,40.409 55.173,39.643 54.23,39.643ZM74.23,37.643C76.277,37.643 77.939,39.305 77.939,41.352C77.939,43.399 76.277,45.061 74.23,45.061C72.183,45.061 70.521,43.399 70.521,41.352C70.521,39.305 72.183,37.643 74.23,37.643ZM74.23,39.643C73.287,39.643 72.521,40.409 72.521,41.352C72.521,42.295 73.287,43.061 74.23,43.061C75.173,43.061 75.939,42.295 75.939,41.352C75.939,40.409 75.173,39.643 74.23,39.643ZM64.23,37.643C66.277,37.643 67.939,39.305 67.939,41.352C67.939,43.399 66.277,45.061 64.23,45.061C62.183,45.061 60.521,43.399 60.521,41.352C60.521,39.305 62.183,37.643 64.23,37.643ZM64.23,39.643C63.287,39.643 62.521,40.409 62.521,41.352C62.521,42.295 63.287,43.061 64.23,43.061C65.173,43.061 65.939,42.295 65.939,41.352C65.939,40.409 65.173,39.643 64.23,39.643ZM33.908,40.809C41.462,40.809 47.595,46.942 47.595,54.496C47.595,62.05 41.462,68.183 33.908,68.183C26.354,68.183 20.221,62.05 20.221,54.496C20.221,46.942 26.354,40.809 33.908,40.809ZM33.908,42.809C27.457,42.809 22.221,48.046 22.221,54.496C22.221,60.946 27.457,66.183 33.908,66.183C40.358,66.183 45.595,60.946 45.595,54.496C45.595,48.046 40.358,42.809 33.908,42.809ZM33.908,44.963C39.169,44.963 43.441,49.234 43.441,54.496C43.441,59.758 39.169,64.029 33.908,64.029C28.646,64.029 24.374,59.758 24.374,54.496C24.374,49.234 28.646,44.963 33.908,44.963ZM33.908,46.963C29.75,46.963 26.374,50.338 26.374,54.496C26.374,58.654 29.75,62.029 33.908,62.029C38.065,62.029 41.441,58.654 41.441,54.496C41.441,50.338 38.065,46.963 33.908,46.963ZM27.167,55.932C26.913,55.591 26.775,54.994 26.814,54.263C26.867,53.28 27.223,52.04 27.915,50.953C28.853,49.48 30.6,48.348 31.486,48.073C31.679,48.013 31.885,48.111 31.959,48.299L32.745,50.294C32.783,50.391 32.78,50.499 32.737,50.594C32.694,50.689 32.614,50.763 32.515,50.798C31.748,51.069 30.814,51.475 29.927,52.342C29,53.249 28.122,54.632 27.85,55.79C27.816,55.935 27.701,56.048 27.554,56.079C27.408,56.109 27.257,56.052 27.167,55.932ZM27.583,54.31C28.033,53.39 28.696,52.469 29.389,51.792C30.234,50.966 31.114,50.513 31.885,50.211L31.626,49.555C31.626,49.555 31.383,48.937 31.383,48.937C30.552,49.313 29.289,50.229 28.564,51.367C27.95,52.332 27.63,53.432 27.583,54.304L27.583,54.31ZM122.271,221.273L132.837,221.273L132.837,56.059L122.05,55.972L122.271,221.273Z"/>
    </g>
</svg>
