<?xml version="1.0" encoding="UTF-8" standalone="no"?>
<!DOCTYPE svg PUBLIC "-//W3C//DTD SVG 1.1//EN" "http://www.w3.org/Graphics/SVG/1.1/DTD/svg11.dtd">
<svg width="100%" height="100%" viewBox="0 0 256 256" version="1.1" xmlns="http://www.w3.org/2000/svg" xmlns:xlink="http://www.w3.org/1999/xlink" xml:space="preserve" xmlns:serif="http://www.serif.com/" style="fill-rule:evenodd;clip-rule:evenodd;stroke-linejoin:round;stroke-miterlimit:2;">
    <path d="M215.5,15.5L215.5,240.5L40.5,240.5L40.5,15.5L215.5,15.5ZM206.008,27.704L49.992,27.704L49.992,228.296L206.008,228.296L206.008,27.704ZM200.008,33.704L200.008,222.296L55.992,222.296C55.992,222.296 55.992,33.704 55.992,33.704L200.008,33.704ZM187.682,185.399L68.318,185.399L68.318,207.128L187.682,207.128L187.682,185.399ZM183.682,189.399L183.682,203.128L72.318,203.128L72.318,189.399L183.682,189.399ZM190.553,132.11L65.447,132.11L65.447,136.143C65.447,138.677 66.453,141.107 68.245,142.898C70.037,144.69 72.467,145.697 75.001,145.697L180.999,145.697C183.533,145.697 185.963,144.69 187.755,142.898C189.547,141.107 190.553,138.677 190.553,136.143L190.553,132.11ZM190.39,44.129L65.61,44.129L65.61,124.361L190.39,124.361L190.39,44.129ZM128,75.772C132.676,75.772 136.472,79.569 136.472,84.245C136.472,88.921 132.676,92.717 128,92.717C123.324,92.717 119.528,88.921 119.528,84.245C119.528,79.569 123.324,75.772 128,75.772ZM94.945,81.436C96.373,64.44 110.638,51.073 128,51.073C145.362,51.073 159.627,64.44 161.055,81.436L140.419,81.436C139.139,75.759 134.061,71.514 128,71.514C121.939,71.514 116.861,75.759 115.581,81.436L94.945,81.436ZM161.055,87.054C159.627,104.049 145.362,117.417 128,117.417C110.638,117.417 96.373,104.049 94.945,87.054L115.581,87.054C116.861,92.731 121.939,96.976 128,96.976C134.061,96.976 139.139,92.731 140.419,87.054L161.055,87.054ZM157.137,90.443C157.137,90.443 142.882,90.443 142.882,90.443C140.451,96.267 134.701,100.365 128,100.365C121.299,100.365 115.549,96.267 113.118,90.443C113.118,90.443 98.863,90.443 98.863,90.443C101.718,103.911 113.687,114.028 128,114.028C142.313,114.028 154.282,103.911 157.137,90.443Z"/>
</svg>
