<?xml version="1.0" encoding="UTF-8" standalone="no"?>
<!DOCTYPE svg PUBLIC "-//W3C//DTD SVG 1.1//EN" "http://www.w3.org/Graphics/SVG/1.1/DTD/svg11.dtd">
<svg width="100%" height="100%" viewBox="0 0 256 256" version="1.1" xmlns="http://www.w3.org/2000/svg" xmlns:xlink="http://www.w3.org/1999/xlink" xml:space="preserve" xmlns:serif="http://www.serif.com/" style="fill-rule:evenodd;clip-rule:evenodd;stroke-linejoin:round;stroke-miterlimit:2;">
    <g transform="matrix(1,0,0,1,4.39266,5.714)">
        <path d="M195.944,166.93L80.679,225.982L4.703,77.683L120.047,18.59L132.476,42.852L242.512,42.852L242.512,209.48L112.912,209.48L112.912,209.471L130.556,200.442L235.483,200.442L235.483,51.89L137.107,51.89L139.383,56.333L231.039,56.333L231.039,195.999L139.239,195.999L161.19,184.766L221.911,184.766L221.911,168.674L192.637,168.674L195.965,166.971L195.944,166.93ZM143.338,64.054L154.472,85.785C157.787,76.137 166.945,69.196 177.712,69.196C190.57,69.196 201.134,79.095 202.192,91.682L186.909,91.682C185.961,87.478 182.201,84.334 177.712,84.334C173.223,84.334 169.463,87.478 168.515,91.682L157.493,91.682L159.624,95.843L168.515,95.843C169.463,100.047 173.223,103.191 177.712,103.191C182.201,103.191 185.961,100.047 186.909,95.843L202.192,95.843C201.134,108.429 190.57,118.329 177.712,118.329C175.243,118.329 172.858,117.964 170.609,117.284L173.779,123.471L223.916,123.471L223.916,64.054L143.338,64.054ZM160.91,98.352L168.925,113.997C171.618,115.169 174.59,115.819 177.712,115.819C188.312,115.819 197.176,108.326 199.29,98.352L188.733,98.352C186.933,102.666 182.675,105.7 177.712,105.7C172.749,105.7 168.491,102.666 166.691,98.352L160.91,98.352ZM176.719,129.21L181.874,139.272L216.962,139.272C218.838,139.272 220.638,138.526 221.965,137.199C223.292,135.873 224.037,134.073 224.037,132.197L224.037,129.21L176.719,129.21ZM117.911,29.839L15.08,82.521L82.814,214.733L185.646,162.051L117.911,29.839ZM115.983,35.82L179.665,160.122L84.743,208.752L21.061,84.45L115.983,35.82ZM113.164,45.939L30.92,88.073L58.012,140.955L140.256,98.82L113.164,45.939ZM62.853,102.757C58.055,91.073 62.943,77.445 74.387,71.583C85.83,65.72 99.746,69.714 106.426,80.434L92.825,87.402C90.064,84.092 85.284,83.009 81.289,85.056C77.294,87.102 75.381,91.615 76.454,95.789L62.853,102.757ZM108.323,84.136C113.121,95.82 108.233,109.448 96.789,115.311C85.346,121.173 71.43,117.179 64.75,106.46L78.351,99.492C81.112,102.801 85.892,103.884 89.887,101.838C93.882,99.791 95.795,95.279 94.722,91.105L108.323,84.136ZM106.885,87.693L97.49,92.507C97.854,97.166 95.448,101.809 91.031,104.072C86.615,106.334 81.441,105.575 77.872,102.557L68.476,107.371C74.906,115.283 86.211,117.91 95.645,113.077C105.079,108.244 109.551,97.534 106.885,87.693ZM82.727,87.862C85.809,86.283 89.593,87.504 91.172,90.586C92.751,93.668 91.531,97.452 88.449,99.031C85.367,100.61 81.583,99.389 80.004,96.307C78.425,93.225 79.645,89.441 82.727,87.862ZM159.082,139.965L80.408,180.271L87.745,194.593L166.419,154.287L159.082,139.965ZM157.796,143.952L162.432,153.001L89.031,190.606L84.395,181.557L157.796,143.952ZM142.98,103.873L60.521,146.117L61.883,148.776C62.739,150.446 64.223,151.708 66.008,152.283C67.795,152.859 69.736,152.702 71.406,151.847L141.271,116.054C142.941,115.198 144.202,113.714 144.778,111.928C145.355,110.142 145.197,108.201 144.342,106.531L142.98,103.873ZM177.712,87.487C181.175,87.487 183.986,90.299 183.986,93.762C183.986,97.225 181.175,100.036 177.712,100.036C174.249,100.036 171.438,97.225 171.438,93.762C171.438,90.299 174.249,87.487 177.712,87.487ZM186.848,171.636L218.949,171.636L218.949,181.804L166.979,181.804L186.848,171.636Z"/>
    </g>
</svg>
